<svg xmlns="http://www.w3.org/2000/svg" viewBox="0 0 64 64">
  <!-- Class One Services — ring-1 mark. Numeral is the outline of Cormorant
       Garamond 600 "1"; proportions per the brand collateral, tuned for
       favicon legibility. -->
  <circle cx="32" cy="32" r="28.0" fill="none" stroke="#C6A15B" stroke-width="4.0"/>
  <g transform="translate(21.656,44.000) scale(0.062176,-0.062176)">
    <path fill="#C6A15B" d="M125.6005859375 305Q125.6005859375 334 120.18708304073033 349.0Q114.77358014396067 364 97.63082097085675 369.0Q80.4880617977528 374 45.30029296875 374Q43.0252685546875 374 43.0252685546875 380.0Q43.0252685546875 386 45.30029296875 386Q70.4752197265625 386 100.78765869140625 385.0Q131.10009765625 384 165.63751220703125 384Q200.1749267578125 384 231.45466926298946 385.0Q262.7344117681664 386 286.46387159968 386Q289.69970703125 386 289.69970703125 380.0Q289.69970703125 374 286.9227764423077 374Q253.599609375 374 236.2334997788915 369.0Q218.86739018278303 364 212.6334021226415 349.0Q206.3994140625 334 206.3994140625 305V81Q206.3994140625 52 211.7170840992647 37.0Q217.03475413602942 22 234.3171817555147 17.0Q251.599609375 12 286.69970703125 12Q289.69970703125 12 289.69970703125 6.0Q289.69970703125 0 286.69970703125 0Q262.5247802734375 0 231.71234130859375 1.0Q200.89990234375 2 165.95396980406747 2Q132.10009765625 2 101.28765869140625 1.0Q70.4752197265625 0 45.30029296875 0Q43.0252685546875 0 43.0252685546875 6.0Q43.0252685546875 12 45.30029296875 12Q78.68356083216293 12 95.82632000526687 17.0Q112.96907917837079 22 119.2848325579354 37.0Q125.6005859375 52 125.6005859375 81Z"/>
  </g>
</svg>
