<svg xmlns="http://www.w3.org/2000/svg" viewBox="0 0 64 64"><g transform="translate(0.422,60.559) scale(0.090052,-0.090052)"><path fill="#C6A15B" d="M40.349853515625 284.3751220703125Q37.349853515625 284.3751220703125 36.349853515625 292.76005859375Q35.349853515625 301.1449951171875 36.349853515625 308.8849365234375Q37.349853515625 316.6248779296875 39.349853515625 316.6248779296875H282.349853515625Q285.349853515625 316.6248779296875 286.349853515625 308.8849365234375Q287.349853515625 301.1449951171875 286.349853515625 292.76005859375Q285.349853515625 284.3751220703125 282.349853515625 284.3751220703125ZM156.349853515625 359Q117.349853515625 359 88.61506028608842 378.0Q59.880267056551844 397 44.25257249311967 429.0Q28.6248779296875 461 28.6248779296875 498Q28.6248779296875 543 50.18369670364092 572.0Q71.74251547759434 601 104.33142757775649 615.5Q136.92033967791863 630 168.00514814268868 630Q208.11457841981132 630 236.19117961379717 610.5Q264.267780807783 591 279.30881716170404 560.5Q294.349853515625 530 294.349853515625 495Q294.349853515625 457 275.349853515625 426.0Q256.349853515625 395 224.849853515625 377.0Q193.349853515625 359 156.349853515625 359ZM171.349853515625 374Q198.51420557776163 374 214.88246899981831 401.5Q231.250732421875 429 231.250732421875 477Q231.250732421875 534 208.36297607421875 574.0Q185.4752197265625 614 149.349853515625 614Q121.57835737481174 614 106.65117819912462 589.0Q91.7239990234375 564 91.7239990234375 517Q91.7239990234375 480 102.04978159311656 447.0Q112.37556416279561 414 130.35007456186656 394.0Q148.3245849609375 374 171.349853515625 374Z"/></g><g transform="translate(28.518,60.559) scale(0.090052,-0.090052)"><path fill="#C6A15B" d="M52.6258544921875 0Q50.6258544921875 0 50.6258544921875 6.0Q50.6258544921875 12 52.6258544921875 12Q94.551025390625 12 117.8260498046875 17.0Q141.10107421875 22 151.18853759765625 37.0Q161.2760009765625 52 161.2760009765625 81V453.6268310546875Q161.2760009765625 521.201171875 129.30126953125 521.201171875Q116.30126953125 521.201171875 97.28863525390625 511.8260498046875Q78.2760009765625 502.450927734375 51.9757080078125 483.70068359375Q48.70068359375 481.70068359375 45.33819580078125 486.70068359375Q41.9757080078125 491.70068359375 44.5257568359375 493.250732421875L236.599609375 632Q240.8746337890625 634.2750244140625 243.599609375 634.2750244140625Q250.049560546875 634.2750244140625 250.049560546875 627.550048828125V81Q250.049560546875 52 258.63702392578125 37.0Q267.2244873046875 22 290.99951171875 17.0Q314.7745361328125 12 357.9747314453125 12Q360.69970703125 12 360.69970703125 6.0Q360.69970703125 0 357.9747314453125 0Q327.7998046875 0 288.0 1.0Q248.2001953125 2 205.30029296875 2Q164.400390625 2 123.73809814453125 1.0Q83.0758056640625 0 52.6258544921875 0Z"/></g></svg>